<?xml version="1.0" encoding="utf-8"?>
<!-- Generator: Adobe Illustrator 16.0.0, SVG Export Plug-In . SVG Version: 6.00 Build 0)  -->
<!DOCTYPE svg PUBLIC "-//W3C//DTD SVG 1.1//EN" "http://www.w3.org/Graphics/SVG/1.1/DTD/svg11.dtd">
<svg version="1.1" id="Capa_1" xmlns="http://www.w3.org/2000/svg" xmlns:xlink="http://www.w3.org/1999/xlink" x="0px" y="0px"
	 width="32px" height="32px" viewBox="0 0 32 32" style="enable-background:new 0 0 32 32;" xml:space="preserve">
<g id="icomoon-ignore">
	<line style="fill:none;stroke:#449FDB;" x1="0" y1="0" x2="0" y2="0"/>
</g>
<g>
	<path style="fill:#FFFFFF;" d="M16,4.086c3.88,0,4.34,0.015,5.873,0.085c1.416,0.064,2.186,0.301,2.697,0.5
		c0.679,0.264,1.163,0.579,1.672,1.087c0.508,0.509,0.822,0.993,1.086,1.671c0.2,0.512,0.436,1.281,0.501,2.699
		c0.069,1.532,0.084,1.992,0.084,5.872c0,3.881-0.015,4.34-0.084,5.872c-0.065,1.417-0.301,2.186-0.501,2.698
		c-0.264,0.678-0.578,1.163-1.086,1.672c-0.509,0.509-0.993,0.822-1.672,1.086c-0.512,0.199-1.281,0.437-2.697,0.502
		c-1.532,0.068-1.992,0.083-5.873,0.083s-4.34-0.015-5.873-0.083c-1.417-0.065-2.186-0.303-2.698-0.502
		c-0.679-0.264-1.163-0.577-1.671-1.086c-0.508-0.509-0.823-0.994-1.087-1.672c-0.2-0.513-0.436-1.281-0.5-2.698
		C4.102,20.34,4.086,19.881,4.086,16c0-3.88,0.015-4.34,0.084-5.872c0.065-1.417,0.301-2.187,0.5-2.699
		C4.936,6.751,5.25,6.267,5.758,5.758C6.267,5.25,6.751,4.935,7.43,4.671c0.512-0.199,1.281-0.436,2.698-0.5
		C11.661,4.101,12.12,4.086,16,4.086 M16,1.468c-3.947,0-4.441,0.017-5.992,0.087C8.461,1.625,7.405,1.871,6.48,2.23
		C5.525,2.602,4.715,3.099,3.907,3.907C3.1,4.715,2.602,5.525,2.231,6.481c-0.359,0.924-0.605,1.981-0.676,3.527
		C1.484,11.558,1.468,12.053,1.468,16c0,3.947,0.017,4.441,0.087,5.992c0.07,1.546,0.316,2.603,0.676,3.527
		c0.371,0.954,0.869,1.767,1.676,2.574c0.808,0.808,1.618,1.304,2.573,1.675c0.925,0.36,1.981,0.605,3.528,0.677
		c1.55,0.07,2.045,0.087,5.992,0.087c3.946,0,4.441-0.017,5.991-0.087c1.548-0.071,2.604-0.316,3.528-0.677
		c0.955-0.371,1.766-0.867,2.573-1.675s1.306-1.62,1.676-2.574c0.359-0.925,0.605-1.981,0.677-3.527
		c0.07-1.551,0.087-2.045,0.087-5.992c0-3.947-0.017-4.442-0.087-5.992c-0.071-1.546-0.317-2.604-0.677-3.527
		c-0.37-0.956-0.868-1.766-1.676-2.574c-0.808-0.808-1.618-1.305-2.573-1.676c-0.925-0.359-1.98-0.605-3.528-0.675
		C20.441,1.484,19.946,1.468,16,1.468L16,1.468z"/>
	<path style="fill:#FFFFFF;" d="M16,8.538c-4.121,0-7.462,3.341-7.462,7.462c0,4.122,3.341,7.462,7.462,7.462
		s7.463-3.34,7.463-7.462C23.463,11.879,20.121,8.538,16,8.538z M16,20.845c-2.675,0-4.844-2.169-4.844-4.845
		c0-2.675,2.168-4.844,4.844-4.844c2.676,0,4.844,2.169,4.844,4.844C20.844,18.676,18.676,20.845,16,20.845z"/>
	<circle style="fill:#FFFFFF;" cx="23.757" cy="8.243" r="1.744"/>
</g>
</svg>
