<?xml version="1.0" encoding="utf-8"?>
<!-- Generator: Adobe Illustrator 22.1.0, SVG Export Plug-In . SVG Version: 6.00 Build 0)  -->
<svg version="1.1" id="Capa_1" xmlns="http://www.w3.org/2000/svg" xmlns:xlink="http://www.w3.org/1999/xlink" x="0px" y="0px"
	 viewBox="0 0 278.3 102" style="enable-background:new 0 0 278.3 102;" xml:space="preserve">
<style type="text/css">
	.st0{fill:#3E4346;}
	.st1{fill:#848A74;}
</style>
<title>olivares_don_ignacio-logo</title>
<g id="Capa_2_1_">
	<g id="Capa_1-2">
		<path class="st0" d="M111.8,88.1c0,1.3-0.5,2.6-1.4,3.5s-2.2,1.5-3.5,1.5H102V72.3h4.9c1.3,0,2.6,0.5,3.5,1.5
			c0.9,0.9,1.5,2.2,1.4,3.5V88.1z M105.1,90h1.9c0.5,0,0.9-0.2,1.3-0.5c0.3-0.3,0.5-0.8,0.5-1.3V77.3c0-0.5-0.2-0.9-0.5-1.3
			s-0.8-0.5-1.3-0.5h-1.9V90z"/>
		<path class="st0" d="M121.8,72c2.8,0,5,2.2,5,5v11.4c0,2.8-2.3,5-5,5c-1.3,0-2.6-0.5-3.5-1.4s-1.5-2.2-1.4-3.5V77
			C116.9,74.2,119.1,72,121.8,72L121.8,72z M123.5,76.9c0-1-0.8-1.8-1.8-1.8l0,0c-0.5,0-0.9,0.2-1.3,0.5c-0.3,0.3-0.5,0.8-0.5,1.3
			v11.4c0,0.5,0.2,0.9,0.5,1.3c0.3,0.3,0.8,0.5,1.3,0.5c1,0,1.8-0.8,1.8-1.8l0,0V76.9z"/>
		<path class="st0" d="M135.4,72.3l4.2,14v-14h3.1v20.8h-3.4L135,79.8v13.3h-3.1V72.3H135.4z"/>
		<path class="st0" d="M154.9,93.1h-3.1V72.3h3.1V93.1z"/>
		<path class="st0" d="M165,93.4c-2.8,0-5-2.2-5-5V77c0-2.8,2.3-5,5-5c1.3,0,2.6,0.5,3.5,1.4c1,0.9,1.5,2.2,1.5,3.5v2.4h-3.3V77
			c0-1-0.8-1.8-1.8-1.8c-0.5,0-0.9,0.2-1.3,0.5c-0.4,0.3-0.6,0.8-0.6,1.3v11.4c0,1,0.8,1.8,1.8,1.8c0.5,0,0.9-0.2,1.3-0.5
			c0.4-0.3,0.5-0.8,0.5-1.3v-4.1H165v-3.2h5v7.3c0,1.3-0.5,2.6-1.5,3.5C167.6,92.9,166.3,93.4,165,93.4z"/>
		<path class="st0" d="M178.6,72.3l4.2,14v-14h3.1v20.8h-3.4l-4.3-13.3v13.3H175V72.3H178.6z"/>
		<path class="st0" d="M194.9,88.3l-0.8,4.8h-3.3l3.5-20.8h4.3l3.5,20.8h-3.3l-0.7-4.8H194.9z M196.5,77.1l-1.2,8.2h2.3L196.5,77.1z
			"/>
		<path class="st0" d="M211.7,93.4c-2.8,0-5-2.2-5-5V77c0-2.8,2.2-5,5-5s5,2.2,5,5v2.4h-3.3V77c0-1-0.8-1.8-1.8-1.8
			c-0.5,0-0.9,0.2-1.3,0.5c-0.3,0.3-0.5,0.8-0.5,1.3v11.4c0,1,0.8,1.8,1.8,1.8l0,0c0.5,0,0.9-0.2,1.3-0.5c0.3-0.3,0.5-0.8,0.5-1.3
			v-2.9h3.3v2.9C216.7,91.2,214.4,93.4,211.7,93.4L211.7,93.4z"/>
		<path class="st0" d="M224.7,93.1h-3.1V72.3h3.1V93.1z"/>
		<path class="st0" d="M234.8,72c2.8,0,5,2.2,5,5v11.4c0,2.8-2.3,5-5,5c-1.3,0-2.6-0.5-3.5-1.4s-1.5-2.2-1.4-3.5V77
			C229.9,74.2,232.1,72,234.8,72L234.8,72z M236.5,76.9c0-1-0.8-1.8-1.8-1.8l0,0c-0.5,0-0.9,0.2-1.3,0.5c-0.3,0.3-0.5,0.8-0.5,1.3
			v11.4c0,0.5,0.2,0.9,0.5,1.3c0.3,0.3,0.8,0.5,1.3,0.5c1,0,1.8-0.8,1.8-1.8l0,0V76.9z"/>
		<path class="st1" d="M51.6,11.9c0.1,0.1,0.3,0.2,0.4,0.2c0.1,0,0.1,0,0.2-0.1c0.1,0,0.1,0,0.2,0c0.2,0,0.3-0.2,0.3-0.3
			c0,0,0-0.1,0.1-0.1l0.1-0.1c0.1-0.2,0-0.4-0.1-0.5s-0.1-0.1-0.2-0.1c-0.1,0-0.1,0-0.1-0.1c-0.1,0-0.3,0-0.4,0c-0.1,0-0.2,0-0.3,0
			L51.5,11c-0.1,0.1-0.1,0.2-0.2,0.3c0,0.1,0,0.1,0,0.1v0.1C51.3,11.5,51.5,11.9,51.6,11.9z"/>
		<path class="st1" d="M62,15c0.2,0.1,0.4,0,0.5-0.1h0.1h0.1l0,0c0-0.1,0-0.1,0-0.1v-0.1c-0.1-0.1-0.1-0.1-0.2-0.2
			c-0.1,0-0.2-0.1-0.3,0l-0.3,0.2c-0.1,0.1-0.1,0.2-0.1,0.3C61.7,14.8,61.8,14.9,62,15z"/>
		<path class="st1" d="M55.5,10.1c0.1,0.1,0.2,0.1,0.3,0L56,10c0.1,0,0.2,0,0.2-0.1l0,0V9.8V9.7c-0.1-0.1-0.1-0.1-0.2-0.2
			c-0.1,0-0.2,0-0.3,0s-0.1,0-0.2,0c0,0-0.1,0.1-0.2,0.1C55.1,9.9,55.2,10,55.5,10.1z"/>
		<path class="st1" d="M19.6,16c-0.1,0-0.2,0-0.4,0l-0.3,0.2c-0.1,0.1-0.1,0.2-0.1,0.3s0.1,0.2,0.3,0.3c0.2,0.1,0.4,0,0.5-0.1h0.1
			v-0.1l0,0c0-0.1,0-0.1,0-0.1v-0.1C19.7,16.1,19.7,16,19.6,16z"/>
		<path class="st1" d="M126.8,53.8c-0.1,0-0.1,0-0.2,0c0,0-0.1,0.1-0.2,0.1c-0.2,0.3-0.1,0.4,0.2,0.5c0.2,0.1,0.4,0,0.6-0.1h0.1
			v-0.1c0-0.1,0-0.1,0-0.1V54c0,0-0.1-0.1-0.3-0.2C127,53.8,126.9,53.8,126.8,53.8z"/>
		<path class="st1" d="M128,40.8c0.2-0.2,0.3-0.5,0.3-0.7c0-0.4-0.3-0.8-0.8-0.8c-0.1,0-0.1,0-0.2,0c-0.4,0.1-0.7,0.3-1,0.6
			c-0.5,0.4-0.8,0.9-1,1.5c-0.2,0.5-0.3,1.1-0.3,1.6c0,0.1,0.1,0.3,0.2,0.3c0.1,0.1,0.3,0,0.4-0.1c0.4-0.5,0.8-1,1.4-1.3
			C127.4,41.5,127.7,41.2,128,40.8z"/>
		<path class="st1" d="M122.3,58c-0.1,0-0.2,0-0.4,0h-0.2c-0.1,0-0.1,0-0.2,0l-0.2,0.2c-0.1,0.1-0.1,0.2-0.1,0.3
			c0,0.1,0,0.2,0.1,0.3c0.1,0.2,0.2,0.3,0.3,0.3c0.1,0.1,0.3,0.2,0.4,0.2s0.1,0,0.2-0.1c0.1,0,0.1,0,0.2,0c0.2,0,0.3-0.2,0.3-0.4
			l0.1-0.2c0.1-0.3,0-0.4-0.2-0.5C122.5,58,122.4,58,122.3,58z"/>
		<path class="st1" d="M132.7,55.6c-0.1,0-0.1,0-0.2,0.1c0,0-0.1,0.1-0.2,0.1c-0.1,0.1-0.1,0.2-0.1,0.3c0,0.1,0.1,0.2,0.3,0.2
			s0.4,0,0.6-0.1c0.1,0,0.1,0,0.1-0.1l0,0l0,0V56v-0.1C133.1,55.6,132.9,55.5,132.7,55.6z"/>
		<path class="st1" d="M151.3,38.2h-0.2c-0.2,0-0.4,0.1-0.4,0.3v0.1c-0.1,1.9-0.6,3.7-1.4,5.3c-1.1,2.3-2.5,4.4-4.1,6.4
			c-1,1.3-2,2.5-2.9,3.4c-0.9,1-1.6,1.7-2,2.2c-0.4-0.5-0.6-1.2-0.4-1.9c0.1-0.9,0.3-1.8,0.6-2.6c0.3-0.9,0.7-1.8,1.1-2.7
			s0.7-1.6,0.9-2c0.2-0.5,0.3-1,0.3-1.5c0-0.4-0.1-0.7-0.3-1c-0.2-0.2-0.4-0.4-0.7-0.5s-0.5-0.1-0.8,0c-0.2,0.1-0.4,0.2-0.5,0.4
			c-0.1,0.1-0.1,0.2-0.2,0.3c0,0.1-0.3,0.6-0.7,1.5c-0.2,0.3-0.3,0.7-0.5,1.1l-3.2,3.3c-1.2,1.2-2.5,2.4-3.9,3.4
			c-0.8,0.5-1.7,1-2.6,1.3c-0.8,0.4-1.6,0.8-2.5,1.1c-0.9,0.3-1.8,0.5-2.7,0.5c-1.3,0-2.1-0.4-2.3-1.1c-0.2-0.9-0.1-1.7,0.2-2.6
			c0.4-1,0.8-2,1.4-3s1-1.8,1.4-2.4c0.3-0.5,0.4-1,0.5-1.5c0-0.4,0-0.8-0.2-1.1c-0.1-0.3-0.3-0.5-0.6-0.7c-0.2-0.1-0.5-0.2-0.7-0.2
			c-0.3,0-0.6,0.2-0.8,0.6c0,0.1-0.3,0.5-0.8,1.3c-0.2,0.3-0.3,0.6-0.5,0.9l-0.9,1c-0.5,0.5-1,1.1-1.5,1.7s-1.1,1.2-1.8,1.9
			s-1.4,1.5-2.3,2.3c-0.4,0.3-0.8,0.7-1.2,1.1s-0.8,0.7-1.3,1.1s-1,0.8-1.6,1.2c-0.4,0.3-0.8,0.6-1.3,0.8c-0.5,0.3-0.9,0.5-1.4,0.7
			s-1,0.3-1.5,0.4s-0.9,0.1-1.4,0c-0.1-0.1-0.3-0.2-0.3-0.3c-0.2-0.2-0.3-0.5-0.3-0.8c-0.1-0.5-0.1-1,0-1.5c0.1-0.8,0.3-1.7,0.6-2.5
			c0.6-1.7,1.3-3.3,2.1-4.9c1-2,2.3-4.3,4-7c1.2-2,2.3-3.9,3.5-5.7s2.2-3.3,2.9-4.3c1.6-0.4,3.2-1.1,4.6-2c1.1-0.7,2.3-1.5,3.3-2.3
			c0.9-0.8,1.8-1.6,2.6-2.5c0.6-0.7,0.9-1.1,0.9-1.2c0.6-0.9,1.1-1.9,1.5-3c0.2-0.6,0.2-1.3-0.1-1.9c-0.1-0.3-0.4-0.5-0.8-0.6
			c-0.3,0-0.5,0-0.8,0c-1.4,0.3-2.7,0.8-3.9,1.7c-1.7,1.2-3.3,2.5-4.7,4c-2.3,2.4-4.4,5-6.3,7.8c-1.1,0.1-2.3,0.2-3.5,0.3l-3.6,0.2
			c-1.6,0.1-3.1,0.2-4.6,0.2h-0.3c0.2-1.3,0.3-2.5,0.4-3.6c0.2-2,0.2-3.8,0.2-5.2c0-1.5-0.1-2.9-0.4-4.4c-0.3-1.8-0.8-3.6-1.7-5.2
			c-0.6-1.1-1.3-2-2.2-2.8c-0.8-0.6-1.7-1.1-2.7-1.3c0.1-0.3,0.2-0.7,0.2-1s-0.1-0.5-0.1-0.8c-0.1-0.2-0.2-0.5-0.3-0.7
			c-0.6-1.1-2.3-1.1-4.9-0.1c-0.8,0.3-1.6,0.6-2.4,1c-0.4,0.2-0.8,0.4-1.1,0.6c-1.7,0.9-3.4,2-4.9,3.2c-2.2,1.7-4.2,3.5-6.2,5.4
			c-1.6,0.1-3.3,0.1-5.1,0c-2.2-0.1-4.4-0.3-6.7-0.7s-4.6-0.8-7-1.4c-3-0.7-6-1.3-9-1.9s-6-1-8.8-1.3c-5.8-0.7-11.7-0.9-17.5-0.6
			C17.3,12.1,12.5,13.1,8,15c-4.1,1.9-6.8,4.6-7.9,8.2C0,23.6-0.1,24-0.1,24.5c0,0.4,0,0.8,0.1,1.2s0.2,0.8,0.5,1.2
			c0.7,0.9,1.8,1.4,2.9,1.3c0.3,0,0.6,0,0.9-0.1C4.5,28,4.8,27.9,5,27.8s0.5-0.3,0.6-0.5C6,26.8,6.2,26.2,6,25.6
			c0-0.2-0.1-0.3-0.4-0.3c-0.2,0-0.3,0.2-0.3,0.4l0,0c0.1,0.4,0.1,0.8-0.2,1.1c-0.2,0.3-0.5,0.5-0.8,0.5s-0.5,0.1-0.8,0.1
			c-0.9,0.1-1.7-0.3-2.3-1c-0.2-0.3-0.3-0.6-0.4-1c0-0.3,0-0.7,0-1s0.1-0.7,0.2-1c1.1-3.3,3.6-5.8,7.6-7.7c3.5-1.6,8.1-2.6,13.9-3
			c2.7-0.2,5.4-0.2,8.2-0.1c2.9,0.1,6,0.3,9.2,0.7c2.9,0.4,5.8,0.8,8.8,1.3s6,1.1,9,1.8c4.6,1.1,9.2,1.8,13.9,2.1c0.7,0,1.5,0,2.2,0
			h2.1c-1.3,1.3-2.4,2.6-3.6,4.1c-1,1.2-2.1,2.7-3.3,4.2c-1.2,1.6-2.2,3.2-3.2,4.9c-1.9,3.3-3.2,6.8-3.8,10.6
			c-1,5.2,0.9,10.5,4.9,13.9c1.1,1,2.4,1.9,3.8,2.6c1.3,0.7,2.8,1.2,4.3,1.5c1.1,0.2,2.3,0.3,3.4,0.3c0.9,0,1.8-0.1,2.8-0.3
			c0.9-0.1,1.7-0.3,2.5-0.6c2.2-0.7,4.2-1.8,6.1-3.1c2-1.4,3.8-3.1,5.3-5c1.8-2.2,3.2-4.6,4.4-7.2c1.2-2.7,2.2-5.5,2.7-8.4
			c0.2-1,0.3-1.9,0.5-2.8h0.6l4.5-0.2c1.1-0.1,2.2-0.1,3.3-0.2s2.2-0.1,3.3-0.3c-0.7,1-1.4,2.1-2.1,3.3s-1.5,2.4-2.2,3.8
			c-1.4,2.4-2.6,4.8-3.6,7.1c-0.4,1-0.8,2-1.3,3s-0.7,2-1,2.9s-0.4,1.8-0.5,2.7c-0.1,0.8-0.1,1.5,0.1,2.3c0.1,0.6,0.5,1.1,1,1.5
			c0.6,0.4,1.3,0.6,2.1,0.6c0.5,0,1.1-0.1,1.6-0.3c1.3-0.4,2.6-1,3.7-1.9c0.5-0.4,1.1-0.8,1.6-1.2c0.5-0.4,0.9-0.8,1.3-1.1
			s0.7-0.6,0.9-0.8c0.1-0.1,0.2-0.3,0.4-0.4c0.9-0.9,1.7-1.7,2.3-2.3s1.2-1.3,1.8-1.9l0.6-0.7c-0.4,0.9-0.8,1.9-1,2.9
			c-0.3,1-0.2,2.1,0.2,3.1c0.2,0.4,0.5,0.8,0.9,1.1c0.4,0.3,0.8,0.6,1.3,0.8c0.7,0.2,1.4,0.3,2.2,0.3c1.4-0.1,2.7-0.3,4-0.8
			c1.5-0.6,3-1.4,4.3-2.4c1.4-1,2.7-2.2,3.9-3.5l2-2.1l-0.1,0.3c-0.4,1.2-0.7,2.4-0.9,3.7c-0.2,1.1-0.1,2.2,0.4,3.2
			c0.1,0.2,0.3,0.4,0.5,0.6s0.4,0.3,0.6,0.4c0.2,0.1,0.5,0.2,0.8,0.1c0.3,0,0.6-0.1,0.9-0.3c0.2-0.1,0.3-0.2,0.4-0.3
			c0.5-0.5,1.2-1.2,2.1-2.2s1.8-2.1,2.8-3.3c1.5-1.8,2.7-3.8,3.8-5.9c1.1-1.9,1.7-4.1,1.8-6.3C151.5,38.4,151.5,38.2,151.3,38.2z
			 M120.5,29.2c0.5-0.7,1.1-1.4,1.7-2.2c0.6-0.7,1.2-1.5,1.8-2.2s1.3-1.4,1.9-2.1c0.8-0.7,1.6-1.4,2.2-1.9c0.5-0.4,1-0.7,1.6-1
			c0.5-0.3,0.8-0.2,1,0.2c0,0.5,0,0.9-0.2,1.3c-0.3,0.9-0.7,1.7-1.3,2.5c-0.3,0.4-0.6,0.8-0.9,1.1c-0.8,0.9-1.6,1.7-2.5,2.5
			c-0.9,0.7-1.9,1.4-2.8,2c-1.2,0.8-2.5,1.4-3.9,1.8L120.5,29.2z M87,12.4c1.3-1.1,2.6-2,4-2.9c0.8-0.5,1.7-0.9,2.7-1.1
			c0.5-0.1,1-0.1,1.5,0c0.2,0.1,0.3,0.3,0.4,0.4c0.1,0.2,0.1,0.4,0.2,0.6c0,0.3,0,0.5-0.1,0.8c-0.3-0.1-0.7-0.1-1-0.1s-0.7,0-1-0.1
			c-0.2,0-0.3,0.1-0.4,0.3v0.1c0,0.2,0.1,0.3,0.3,0.4h0.1c0.3,0,0.6,0.1,0.8,0c0.3,0,0.6,0,0.8,0.1c-0.3,0.5-0.6,1-1.1,1.3
			c-0.6,0.5-1.3,1-2,1.5c-0.8,0.5-1.9,1.2-3.3,1.9c-0.6,0.3-1.3,0.5-1.9,0.7s-1.4,0.4-2.4,0.7s-2.1,0.5-3.4,0.7
			C83,15.8,84.9,14,87,12.4z M100,36.1c-0.3,1.3-0.7,2.6-1.2,4c-0.5,1.5-1.1,3-1.8,4.4c-0.4,1-0.9,2-1.5,2.9c-0.6,1-1.3,2-2,3
			c-0.9,1.2-1.9,2.3-2.9,3.4c-1,1-2.1,2-3.2,2.8c-1.2,0.9-2.4,1.6-3.8,2.2c-1.3,0.6-2.7,1-4.2,1.2c-1.5,0.3-3.1,0.3-4.6,0L74,59.8
			l-0.8-0.2c-0.5-0.2-0.9-0.4-1.3-0.6s-0.8-0.4-1.2-0.7c-1.7-1.1-3.2-2.6-4.2-4.3c-0.9-1.6-1.5-3.3-1.7-5.1
			c-0.2-1.8-0.1-3.7,0.3-5.5c0.4-1.9,0.9-3.7,1.6-5.4c1.9-4.6,4.4-8.9,7.4-12.9l3.2-3.5c1-1.1,2-2.1,2.9-3c1.3-0.1,2.7-0.4,4-0.7
			c1.1-0.3,2.1-0.5,2.8-0.8c0.8-0.2,1.5-0.5,2.2-0.9c1.9-0.8,3.6-1.8,5.1-3.2c0.4-0.3,0.7-0.6,0.9-1c0.2-0.3,0.4-0.7,0.6-1
			c1.3,0.3,2.5,1.1,3.3,2.1c0.3,0.5,0.6,1,0.8,1.5c0.4,0.9,0.7,1.9,0.9,2.9c0.3,1.6,0.5,3.1,0.5,4.7c0.1,2.3-0.1,4.6-0.4,6.8
			c-0.2,1.1-0.3,2.2-0.5,3.3c0,0.2-0.1,0.4-0.1,0.6c-0.6,0.1-1.1,0.2-1.7,0.3c-2.6,0.6-4.2,1.9-4.5,3.7c-0.1,0.2,0,0.4,0.3,0.4
			s0.4,0,0.4-0.3c0.3-1.5,1.7-2.6,4-3.2c0.4-0.1,0.9-0.2,1.3-0.3C100.4,34.6,100.2,35.3,100,36.1z"/>
		<path class="st1" d="M165.6,53.8l-0.3,0.2c-0.2,0.3-0.1,0.4,0.2,0.5c0.1,0,0.2,0,0.3,0s0.2-0.1,0.3-0.1l0.1-0.1l0,0
			c0-0.1,0-0.1,0-0.1v-0.1c0,0-0.1-0.1-0.3-0.1L165.6,53.8z"/>
		<path class="st1" d="M161.1,57.9c-0.1,0-0.2,0-0.4,0c0,0-0.1,0.1-0.2,0.1c-0.1,0-0.1,0-0.2,0l-0.2,0.2c-0.1,0.1-0.1,0.2-0.1,0.3
			c0,0.1,0,0.2,0.1,0.3c0.1,0.2,0.2,0.3,0.3,0.3c0.1,0.1,0.3,0.2,0.4,0.2c0.1,0,0.3,0,0.4-0.1c0.2,0,0.3-0.2,0.3-0.3
			c0,0,0-0.1,0.1-0.1v-0.1c0.1-0.2,0-0.4-0.2-0.5L161.1,57.9z"/>
		<path class="st1" d="M173,55.3c-0.1,0-0.1,0-0.2,0.1c0,0-0.1,0.1-0.2,0.1c-0.1,0.1-0.1,0.2-0.1,0.3c0,0.1,0.1,0.2,0.3,0.2
			s0.4,0,0.6-0.1c0.1,0,0.1,0,0.1-0.1l0,0v-0.1v-0.1v-0.1C173.5,55.5,173.3,55.2,173,55.3z"/>
		<path class="st1" d="M203,52c-0.1,0.1-0.2,0.1-0.3,0.2c-0.2,0.2-0.2,0.4,0.2,0.5c0.1,0,0.2,0,0.3,0s0.2-0.1,0.3-0.1s0.1,0,0.1-0.1
			v-0.3c-0.1-0.1-0.2-0.1-0.3-0.2C203.2,52,203.1,52,203,52z"/>
		<path class="st1" d="M201.7,56.6c-0.1,0-0.2,0-0.4,0c-0.1,0-0.1,0-0.2,0s-0.1,0-0.2,0c-0.1,0.1-0.1,0.2-0.2,0.2
			c-0.1,0.1-0.1,0.2-0.1,0.3c0,0.1,0,0.2,0.1,0.3c0,0.1,0.1,0.3,0.3,0.3c0.1,0.1,0.3,0.2,0.4,0.2c0.1,0,0.3,0,0.4-0.1
			c0.2,0,0.3-0.2,0.3-0.3v-0.1c0,0,0-0.1,0.1-0.1c0.1-0.2,0-0.4-0.2-0.5L201.7,56.6z"/>
		<path class="st1" d="M209,53.3c-0.1,0-0.2,0-0.3,0l-0.3,0.2c-0.2,0.3-0.2,0.4,0.2,0.5c0.2,0.1,0.4,0,0.6-0.1h0.1v-0.1
			c0-0.1,0-0.1,0-0.1v-0.1C209.2,53.4,209.1,53.3,209,53.3z"/>
		<path class="st1" d="M226,51.5c-0.1-0.6-0.3-1.2-0.6-1.8l-0.4-0.8c-0.4-0.7-1-1.4-1.6-2c-0.5-0.5-1.1-0.9-1.6-1.3
			c-0.6-0.3-1.1-0.6-1.8-0.8c-0.1-0.6-0.2-1.3-0.4-1.9s-0.3-1.2-0.4-1.7c-0.1-0.6-0.3-1.1-0.5-1.7c0.5-0.8,0.9-1.5,1.3-2.3
			c0.4-0.8,0.7-1.6,1-2.4c0.1-0.2,0.1-0.3,0.2-0.5c0.1-0.3,0.1-0.5,0.2-0.8c0-0.3,0-0.6-0.1-0.9c-0.1-0.3-0.3-0.5-0.6-0.7
			c-0.5-0.2-1,0-1.4,0.3c-0.3,0.2-0.5,0.4-0.7,0.7c-0.5,0.5-0.8,1.1-1.1,1.7c-0.4,0.9-0.7,1.8-0.9,2.8c-0.2,1.4-0.3,2.8-0.1,4.2
			c-0.4,0.6-0.9,1.2-1.3,1.7s-0.8,1-1.1,1.5c-0.9,0.3-1.8,0.6-2.6,1.1c-1.7,1.1-3,2.6-3.8,4.4c-0.2,0.5-0.4,1.1-0.6,1.6l-0.6,0.5
			c-0.5,0.4-1,0.7-1.6,1.1c-0.6,0.3-1.2,0.6-1.8,0.8c-0.6,0.2-1.2,0.3-1.9,0.3c-0.5,0-0.9-0.1-1.3-0.4c-0.3-0.2-0.4-0.6-0.4-0.9
			c0-0.4,0-0.8,0.1-1.3s0.3-0.9,0.5-1.3c0.7-0.2,1.3-0.4,1.9-0.8c0.7-0.4,1.3-0.8,1.9-1.3c0.6-0.5,1.1-1,1.6-1.6
			c0.4-0.5,0.8-1.1,1-1.7c0.4-0.8,0.4-1.7,0.1-2.5c-0.1-0.2-0.3-0.4-0.6-0.5c-0.1-0.1-0.3-0.1-0.4-0.1c-0.8-0.2-1.7-0.1-2.5,0.3
			s-1.5,0.9-2.1,1.5c-0.6,0.5-1.1,1.1-1.6,1.7l-0.5,0.6c-0.4,0.4-0.7,0.8-1.1,1.2s-1,1.1-1.5,1.7s-1.1,1.2-1.8,1.9s-1.4,1.5-2.3,2.3
			c-0.5,0.5-1,0.9-1.5,1.3s-0.9,0.8-1.3,1.2s-0.9,0.7-1.2,0.9c-0.8,0.5-1.6,1-2.4,1.4c-0.6,0.3-1.2,0.5-1.9,0.6
			c-0.4,0.1-0.9,0.1-1.4,0c-0.3-0.1-0.7-0.2-0.9-0.4c-0.7-0.5-0.9-1.6-0.6-3.3c0.5-2.3,1.3-4.5,2.4-6.6c0.3-0.7,0.6-1.3,0.7-2.1
			c0.1-0.6,0.2-1.2,0.1-1.8c0-0.6-0.2-1.1-0.4-1.7c-0.2-0.5-0.4-1.1-0.7-1.7c0.5-1,1-2.1,1.3-3.2c0.2-0.8,0.4-1.6,0.5-2.4
			c0-0.1,0-0.3,0-0.7s0-0.8,0-1.2c-0.1-0.4-0.2-0.8-0.4-1.2c-0.2-0.3-0.5-0.6-0.9-0.7c-0.6-0.2-1.3,0.1-1.7,0.7c-0.7,1-1,2.1-1,3.3
			c0,0.6,0,1.1,0.1,1.7c0.1,0.6,0.2,1.1,0.4,1.7c0.2,0.7,0.5,1.4,0.9,2c-0.3,0.7-0.7,1.3-1.1,1.9c-0.5,0.8-1.1,1.5-1.7,2.3
			c-0.1,0-0.1,0.1-0.1,0.1c-0.1,0.1-0.2,0.3-0.3,0.4s-0.2,0.2-0.3,0.4l0,0c0,0,0,0-0.1,0.1l0,0c-1,1-2,2.2-3.2,3.4
			c-1.2,1.3-2.5,2.4-3.9,3.4c-2.1,1.7-4.7,2.7-7.4,3c-0.6,0.1-1.2,0-1.8-0.2c-0.4-0.1-0.7-0.4-1-0.7c-0.2-0.3-0.4-0.7-0.5-1.1
			c-0.1-0.8-0.1-1.7,0.2-2.5c0.3-1,0.7-2,1.3-3c0.6-1.1,1.2-2.1,1.9-3.1s1.4-2,2.2-2.9c0.3-0.4,0.6-0.8,0.8-1.3
			c0.2-0.4,0.3-0.8,0.3-1.2s-0.2-0.8-0.5-1.1s-0.7-0.4-1.1-0.2c-0.4,0.1-0.8,0.4-1.1,0.6c-0.4,0.4-0.9,0.9-1.2,1.3l-0.4,0.5
			c-0.1,0.2-0.2,0.3-0.3,0.5c-0.1-0.5-0.3-0.9-0.5-1.3c-0.4-0.7-1.1-1.2-1.9-1.3c-1.6-0.1-3.2,0.5-4.3,1.7c-0.7,0.5-1.4,1.2-1.9,1.9
			s-1,1.4-1.3,2.3c-0.7,2.1-0.8,3.7-0.3,4.8c0.1,0.3,0.3,0.5,0.5,0.7s0.4,0.3,0.6,0.5c0.3,0.2,0.6,0.2,0.9,0.2
			c0.9-0.1,1.7-0.4,2.4-1c0.5-0.3,0.9-0.7,1.3-1.1c0.4-0.4,0.7-0.7,1-1l1-1.1c-0.1,0.1-0.1,0.3-0.2,0.4c-0.1,0.1-0.1,0.3-0.2,0.4
			c-1.2,3.2-1.5,5.6-0.6,7.2c0.2,0.4,0.5,0.8,0.9,1.1c0.4,0.3,0.8,0.6,1.3,0.8c0.7,0.2,1.4,0.3,2.2,0.3c1.4-0.1,2.8-0.4,4.1-0.9
			c1.5-0.6,3-1.4,4.3-2.4c1.4-1,2.8-2.2,4-3.5c1.1-1.2,2.2-2.3,3.1-3.3l0.1-0.1l0.4-0.4l0.1-0.1c0.1-0.1,0.2-0.2,0.3-0.3l0,0l0,0
			c0.7-0.8,1.3-1.6,1.9-2.5c0.1-0.2,0.3-0.4,0.4-0.6l0.4-0.6c-0.1,0.4-0.2,0.7-0.3,1.1c-0.2,0.7-0.5,1.4-0.9,2.1
			c-0.2,0.5-0.5,1.2-0.9,2s-0.6,1.7-0.9,2.5c-0.3,0.9-0.5,1.8-0.6,2.8c-0.2,0.9-0.2,1.8-0.1,2.7c0.1,0.8,0.3,1.6,0.8,2.2
			c0.4,0.7,1.1,1.2,1.8,1.5s1.5,0.4,2.3,0.3s1.5-0.3,2.3-0.6c0.8-0.4,1.7-0.8,2.4-1.4c0.5-0.4,1.1-0.8,1.6-1.2
			c0.5-0.4,0.9-0.8,1.3-1.1s0.7-0.6,0.9-0.8c0.1-0.1,0.2-0.3,0.4-0.4l2.3-2.3c0.6-0.7,1.2-1.3,1.8-1.9l0.5-0.6
			c-0.2,0.6-0.4,1.2-0.5,1.9c-0.1,0.7-0.1,1.4,0.2,2.1c0.5,1.1,1.6,1.9,2.9,2.1c0.7,0.2,1.5,0.2,2.2,0s1.4-0.4,2-0.7
			c0.7-0.3,1.4-0.7,2-1.2l0.4-0.3c-0.1,0.5-0.2,1.1-0.2,1.6s0,1.1,0.1,1.6s0.3,1,0.5,1.5c0.3,0.7,0.7,1.2,1.3,1.7
			c0.4,0.4,0.7,0.6,0.8,0.6c0.2,0.2,0.5,0.3,0.8,0.5c0.4,0.2,0.8,0.4,1.2,0.5c0.5,0.2,1.1,0.3,1.6,0.3c0.7,0,1.3,0,2-0.1
			c0.8-0.1,1.5-0.3,2.2-0.8c0.5-0.4,1-0.8,1.4-1.3c0.3-0.4,0.6-0.9,0.9-1.3c0.2-0.3,0.3-0.7,0.4-1c0.8-2.5,1.1-5.2,0.8-7.8
			c-0.1-0.6-0.1-1.3-0.2-1.9s-0.1-1.2-0.2-1.8c0.8,0.3,1.5,0.8,2.2,1.3c0.7,0.6,1.3,1.2,1.8,1.9c0.6,0.9,1,1.9,1.3,2.9
			c0.2,0.8,0.3,1.7,0.3,2.5c0.1,1.1-0.1,2.2-0.4,3.2c-0.1,0.3,0,0.4,0.2,0.5s0.4,0,0.5-0.2v-0.1c0.4-1.1,0.5-2.3,0.5-3.5
			C226.3,53.2,226.2,52.3,226,51.5z M200.9,49.2c0.1-0.2,0.2-0.4,0.3-0.5c0.1-0.2,0.2-0.3,0.3-0.5c0.8-1.1,1.5-2,2-2.7
			s0.9-1.2,1.3-1.5c0.2-0.2,0.4-0.4,0.7-0.6c0.1-0.1,0.2-0.1,0.3-0.1c0.1,0.1,0.2,0.2,0.2,0.3c0,0.2,0,0.4,0,0.6
			c-0.1,0.3-0.2,0.7-0.3,1c-0.3,0.7-0.7,1.4-1.3,2c-0.6,0.7-1.4,1.3-2.2,1.8c-0.3,0.2-0.6,0.3-0.9,0.5s-0.6,0.3-0.9,0.4
			C200.6,49.6,200.7,49.4,200.9,49.2L200.9,49.2z M159.6,46.9c-0.4,0.6-0.9,1.1-1.4,1.6c-0.5,0.4-0.9,0.8-1.3,1.1
			c-0.4,0.3-0.9,0.6-1.4,0.8c-0.4,0.2-1,0.1-1.2-0.3s-0.2-0.9,0-1.3c0.2-0.6,0.5-1.2,0.8-1.8c0.4-0.6,0.8-1.2,1.2-1.8
			c0.3-0.5,0.7-0.9,1.1-1.4c0.3-0.3,0.6-0.6,0.9-0.8c0.4-0.3,0.8-0.6,1.2-0.8c0.4-0.2,0.8-0.4,1.3-0.4c0.4-0.1,0.8,0.1,1.1,0.3
			c0.1,0.1,0.2,0.2,0.3,0.3c0.1,0.3,0.2,0.5,0.3,0.8c-0.2,0.4-0.5,0.8-0.8,1.1l-1,1.2C160.3,45.9,159.9,46.4,159.6,46.9L159.6,46.9z
			 M182.3,38.9c-0.1-0.6-0.3-1-0.3-1.4c-0.1-0.4-0.1-0.9-0.1-1.3c0-1,0.3-2,0.8-2.8c0.1-0.1,0.2-0.2,0.3-0.3s0.2-0.1,0.3-0.2
			c0.1,0,0.3,0,0.4,0c0.3,0.1,0.5,0.3,0.5,0.6c0.1,0.3,0.1,0.6,0.2,0.9v1.1c0,0.2,0,0.3-0.1,0.5c-0.1,0.8-0.3,1.7-0.5,2.5
			s-0.5,1.5-0.9,2.3C182.6,40.1,182.4,39.5,182.3,38.9L182.3,38.9z M215.6,43.9l0.4-0.5c0.1-0.1,0.2-0.2,0.3-0.3
			c0.1-0.1,0.2-0.2,0.3-0.3c0,0.3,0.1,0.6,0.1,0.8s0.1,0.5,0.1,0.8h-0.6c-0.2,0-0.3,0-0.5,0s-0.3,0.1-0.5,0.1
			C215.3,44.3,215.4,44.1,215.6,43.9L215.6,43.9z M211.9,46.5l1.1-0.6l-0.2,0.2l0,0c-0.1,0.1-0.2,0.2-0.3,0.4l-0.4,0.4
			c0,0,0,0-0.1,0c0,0-0.1,0.1-0.1,0.2c-0.4,0.4-0.8,0.9-1.2,1.3c-0.6,0.7-1.3,1.3-2,2l-0.4,0.4l-0.2,0.2c0.1-0.2,0.1-0.3,0.2-0.4
			C209.1,48.9,210.3,47.5,211.9,46.5L211.9,46.5z M217.4,53.8c-0.1,0.7-0.3,1.3-0.4,2c-0.7,2.2-1.6,3.6-2.7,4.3
			c-1.3,0.7-2.8,0.6-4-0.1c-0.4-0.1-0.7-0.3-1-0.6c-0.3-0.3-0.5-0.5-0.8-0.8c-0.2-0.3-0.5-0.7-0.7-1c-0.4-0.9-0.6-1.8-0.6-2.8
			c0-0.8,0.1-1.6,0.3-2.3c0.3-0.2,0.5-0.4,0.7-0.6c0.5-0.5,0.8-0.8,0.9-0.9c0.7-0.7,1.4-1.4,2-2.1l1.3-1.4l0,0l0,0l0.4-0.4h0.1
			c0.1-0.1,0.2-0.2,0.4-0.3c0.1-0.1,0.2-0.2,0.3-0.3v-0.1c0.2-0.3,0.5-0.5,0.7-0.8l0.8-0.2c0.3-0.1,0.5-0.1,0.8-0.2
			c0.3,0,0.6,0,0.9,0c0.2,1.5,0.4,2.7,0.5,3.7c0.1,0.9,0.2,1.9,0.2,2.8C217.5,52.3,217.5,53,217.4,53.8L217.4,53.8z M218.5,34.8
			c0.2-0.8,0.6-1.5,1.1-2l0.3-0.2l0.2-0.1c0.1,0,0.2,0,0.2,0c0.1,0.1,0.2,0.2,0.2,0.4c0,0.5-0.1,1.1-0.3,1.5c-0.5,1.4-1.1,2.7-1.9,4
			C218.2,37.2,218.2,36,218.5,34.8L218.5,34.8z"/>
		<path class="st1" d="M278.2,45.8c-0.1-0.1-0.3-0.2-0.5-0.1c0,0,0,0-0.1,0.1s-0.2,0.3-0.3,0.4c-0.1,0.1-0.2,0.2-0.3,0.4
			c-0.6,0.6-1.2,1.3-1.8,1.9s-1.3,1.3-2,2l-0.4,0.4c-0.2,0.2-0.4,0.4-0.7,0.6c-0.4,0.3-0.8,0.7-1.3,1c-0.5,0.4-1,0.7-1.6,1.1
			c-0.6,0.3-1.2,0.6-1.8,0.8c-0.6,0.2-1.2,0.3-1.9,0.3c-0.5,0-0.9-0.1-1.3-0.4c-0.3-0.2-0.4-0.6-0.5-0.9c0-0.4,0-0.8,0.1-1.3
			s0.3-0.9,0.5-1.3c0.7-0.2,1.3-0.5,2-0.8c0.7-0.4,1.3-0.8,1.9-1.3c0.6-0.4,1.1-0.9,1.6-1.5c0.4-0.5,0.8-1.1,1-1.7
			c0.4-0.8,0.4-1.7,0-2.4c-0.1-0.2-0.3-0.4-0.6-0.5c-0.1-0.1-0.3-0.1-0.4-0.1c-0.8-0.2-1.7-0.1-2.5,0.3s-1.5,0.9-2.1,1.5
			c-0.6,0.5-1.1,1.1-1.5,1.7l-0.5,0.6c-0.4,0.4-0.7,0.8-1.1,1.2l-1.5,1.7c-0.5,0.6-1.1,1.2-1.8,1.9s-1.4,1.5-2.3,2.3
			c-0.4,0.4-0.9,0.8-1.3,1.2s-0.8,0.7-1.3,1.1s-0.9,0.8-1.4,1.1s-0.8,0.6-1.3,0.9s-0.9,0.5-1.4,0.7s-0.9,0.3-1.4,0.4
			c-0.4,0.1-0.9,0.1-1.4,0c-0.1-0.1-0.3-0.2-0.4-0.3c-0.2-0.2-0.3-0.5-0.3-0.8c-0.1-0.5-0.1-1,0-1.5c0.1-0.8,0.3-1.7,0.5-2.5
			c0.6-1.7,1.3-3.3,2.1-4.9c1-2,2.3-4.3,3.9-7c0.7-1.2,1.4-2.3,2.1-3.4l2-3.1c0.3-0.4,0.6-0.9,0.9-1.4l0.9-1.3
			c0.4-0.5,0.7-0.9,1-1.4c1.5-0.4,3-1,4.4-1.9c1.1-0.7,2.2-1.4,3.2-2.2c1-0.7,1.8-1.6,2.6-2.5c0.5-0.7,0.8-1,0.8-1.1
			c0.6-0.8,1-1.7,1.4-2.6c0.2-0.5,0.3-1.1,0.1-1.7c-0.1-0.4-0.4-0.7-0.9-0.8c-0.3-0.1-0.7-0.1-1-0.1c-0.5,0.1-0.9,0.2-1.4,0.3
			c-1,0.4-2,0.9-2.9,1.6c-1.5,1.2-3,2.4-4.3,3.8c-2.1,2.2-4,4.5-5.7,6.9c-0.9,0.1-1.9,0.1-3.1,0.1s-2.3,0-3.4,0c-1.9,0-3.9,0-5.9,0
			c-1.9,0-3.8,0.1-5.6,0.4c-4,0.7-6.1,2-6.5,4.1c0,0.2,0.1,0.4,0.3,0.4c0.3,0.1,0.4,0,0.4-0.3c0.2-1,0.9-1.9,1.9-2.3
			c1.3-0.6,2.7-1.1,4.2-1.3c1.8-0.2,3.6-0.4,5.4-0.4c2,0,3.9,0,5.7,0h3.2c0.9,0,1.9,0,2.8-0.1c-0.8,1.1-1.6,2.4-2.4,3.7
			s-1.7,2.7-2.6,4.3l-0.2,0.3c-0.1,0.1-0.2,0.2-0.2,0.3l-0.2,0.4c0,0-1.4,2.6-2.5,4.9c0-0.4-0.1-0.8-0.4-1.1
			c-0.5-0.7-1.2-1.1-2.1-1.1c-0.6,0-1.2,0.1-1.8,0.3c-0.7,0.3-1.3,0.6-1.8,1.1c-0.6,0.5-1.1,1.1-1.6,1.7s-0.8,1.3-1.1,2
			c-0.8,2.1-0.8,3.7-0.3,4.8c0.2,0.4,0.4,0.7,0.8,0.9l0.6,0.3c0.2,0.1,0.4,0.1,0.6,0.1c0.9-0.1,1.7-0.4,2.4-1c0.4-0.3,0.9-0.6,1.2-1
			c0,0,0.5-0.6,1.1-1.3c-0.1,0.4-0.2,0.7-0.3,1.1c-0.2,0.6-0.3,1.3-0.4,1.9c-0.1,0.7-0.1,1.5-0.1,2.2s0.2,1.4,0.6,2
			c0.3,0.6,0.9,1,1.6,1.2c0.3,0.1,0.5,0.1,0.8,0.1s0.6,0,0.8-0.1c0.3,0,0.6-0.1,0.9-0.2c1.3-0.4,2.6-1.1,3.7-1.9
			c0.5-0.4,1.1-0.8,1.6-1.2c0.5-0.4,0.9-0.8,1.3-1.1s0.7-0.6,0.9-0.8s0.3-0.4,0.4-0.4c0.9-0.9,1.6-1.7,2.3-2.3s1.2-1.3,1.8-1.9
			l0.5-0.6c-0.2,0.6-0.4,1.2-0.5,1.9c-0.1,0.7-0.1,1.4,0.2,2.1c0.5,1.2,1.7,2,2.9,2.1c0.7,0.2,1.5,0.2,2.2,0s1.4-0.4,2-0.7
			c0.7-0.3,1.4-0.7,2-1.2c0.7-0.5,1.4-1,2-1.6c0.5-0.5,0.8-0.8,0.9-0.9c0.7-0.7,1.4-1.4,2-2.1s1.3-1.2,1.8-1.9
			c0.1-0.1,0.3-0.2,0.4-0.3c0.1-0.1,0.2-0.2,0.3-0.3C278.4,46.2,278.3,45.9,278.2,45.8L278.2,45.8z M265.4,49.2
			c0.1-0.2,0.2-0.4,0.3-0.5c0.1-0.2,0.2-0.3,0.3-0.5c0.8-1.1,1.5-2,2-2.7s0.9-1.2,1.3-1.5c0.2-0.2,0.4-0.4,0.7-0.6
			c0.1-0.1,0.2-0.1,0.3-0.1c0.1,0.1,0.2,0.2,0.2,0.3c0,0.2,0,0.4,0,0.6c0,0.3-0.1,0.7-0.3,1c-0.3,0.7-0.7,1.4-1.3,2
			c-0.6,0.7-1.4,1.3-2.2,1.8c-0.3,0.2-0.6,0.3-0.9,0.5s-0.6,0.3-0.9,0.4C265.2,49.6,265.3,49.4,265.4,49.2z M263.7,27
			c1-1.3,2-2.5,3-3.6c0.9-1,1.8-1.9,2.9-2.8c0.6-0.6,1.4-0.9,2.2-0.9c0.2,0,0.3,0.2,0.3,0.3c0,0.6-0.5,1.7-1.5,3.3
			c-0.1,0.1-0.4,0.5-0.9,1.1c-0.7,0.8-1.5,1.6-2.4,2.3s-1.8,1.4-2.7,2c-1.1,0.7-2.3,1.2-3.6,1.7C261.8,29.4,262.7,28.3,263.7,27z
			 M242,53.8c-0.3,0.1-0.6,0.1-0.9,0c-0.2-0.1-0.3-0.4-0.3-0.9c0.1-0.6,0.3-1.3,0.6-1.9c0.5-1,1.1-2,1.7-2.9
			c0.6-0.8,1.2-1.6,1.9-2.3c0.4-0.4,0.8-0.7,1.2-0.9c0.2-0.1,0.5-0.1,0.7,0l0.3,0.2c0.3,0.8,0.3,1.7,0,2.4c-0.3,0.5-0.5,1-0.8,1.5
			s-0.5,1.1-0.8,1.7C244.5,52,243.4,53,242,53.8z"/>
		<path class="st1" d="M267.5,52c-0.1,0.1-0.2,0.1-0.3,0.2c-0.2,0.2-0.1,0.4,0.2,0.5c0.1,0,0.2,0,0.3,0l0.3-0.1c0.1,0,0.1,0,0.1-0.1
			v-0.3c-0.1-0.1-0.2-0.1-0.3-0.2C267.8,52,267.7,52,267.5,52z"/>
		<path class="st1" d="M273.5,53.3c-0.1,0-0.2,0-0.3,0l-0.3,0.2c-0.2,0.3-0.1,0.4,0.2,0.5c0.2,0.1,0.4,0,0.6-0.1h0.1v-0.1
			c0-0.1,0-0.1,0-0.1v-0.1C273.7,53.4,273.6,53.3,273.5,53.3z"/>
		<path class="st1" d="M266.3,56.6c-0.1,0-0.2,0-0.4,0c-0.1,0-0.1,0-0.2,0s-0.1,0-0.2,0c-0.1,0.1-0.1,0.2-0.2,0.2
			c-0.1,0.1-0.1,0.2-0.1,0.3c0,0.1,0,0.2,0.1,0.3c0,0.1,0.1,0.3,0.3,0.3c0.1,0.1,0.3,0.2,0.4,0.2s0.3,0,0.4-0.1
			c0.2,0,0.3-0.2,0.3-0.3v-0.1c0,0,0-0.1,0.1-0.1c0.1-0.2,0-0.4-0.2-0.5L266.3,56.6z"/>
	</g>
</g>
</svg>
