<svg xmlns="http://www.w3.org/2000/svg" viewBox="0 0 106.97 59.93"><defs><style>.cls-1{fill:#7f8571;}</style></defs><title>olive</title><g id="Capa_2" data-name="Capa 2"><g id="Capa_1-2" data-name="Capa 1"><path class="cls-1" d="M106.9,7.39c.11-.15.1-.3-.07-.31a1.51,1.51,0,0,0-.43.11c-.39.14-.74.36-1.12.51a12.83,12.83,0,0,1-3,.94c-1.67.23-3.39.34-5,.44-1,.06-2.12.13-3.18.22a43.84,43.84,0,0,0-15,4.45c-4.51,2.18-9.63,4.64-15.31,5.34l-.08,0-.07,0h-.15a.19.19,0,0,1-.22-.14.21.21,0,0,1,.1-.26,6,6,0,0,1,.6-.2c.45-.17.9-.35,1.36-.5,1.51-.55,3.06-1.11,4.56-1.74a14.3,14.3,0,0,0,3.55-1.9,74.48,74.48,0,0,0,6.58-5.9c1.83-1.91,3.55-4,5.21-6,.46-.55.92-1.11,1.39-1.66a1.59,1.59,0,0,0,.42-.6c.09-.4-.5-.26-.71-.16-.54.27-1.09.57-1.61.87a16.4,16.4,0,0,1-3.17,1.5c-4.65,1.43-8.4,4.29-12.47,7.61a44.9,44.9,0,0,0-5.51,5.77l-1.17,1.38c-1.48,1.73-2.79,3-5.23,2.88a6.84,6.84,0,0,0-3.44.93c-.28.14-.55.3-.82.44-1.23.59-2.42,1.27-3.63,1.92s-2.58,1.39-3.89,2.06c-.9.45-1.79,1-2.66,1.48-2.72,1.58-5.53,3.21-9,3.21-2.59,0-5.14-.14-7.51-.28-.15,0-.3-.12-.46-.34a1.19,1.19,0,0,1-.26-.8,1.54,1.54,0,0,1,2.24-1.11,8,8,0,0,0,5.45-.22A6.11,6.11,0,0,0,37,22.08c-.07-2.36-1.09-3.51-3.76-4.25-.7-.2-1-.42-1.13-.72s.22-.72.6-1.11l.16-.16c.79-.83,1.58-1.68,2.36-2.53A11.63,11.63,0,0,0,36.45,12a2.15,2.15,0,0,0,.37-.8c0-.37-.53-.33-.83-.25-.89.26-1.81.49-2.7.71a60.13,60.13,0,0,0-10.77,4c-1.09.51-2.08,1.18-3.16,1.72a34.31,34.31,0,0,0-3.83,1.93c-1.22.83-2.22,2-3.5,2.72l-2,1.74a2.75,2.75,0,0,1-1.37.42,8.23,8.23,0,0,1-2.12-.91c-.39-.17-.77-.32-1.15-.5a8.41,8.41,0,0,1-2.25-1.26A6.23,6.23,0,0,1,1.94,20,3.06,3.06,0,0,0,.81,18.82c-.84-.47-1-.13-.54,1.08.15.37.07,1.14.69,1.71a35.1,35.1,0,0,0,3.47,3.32,22.28,22.28,0,0,0,3.5,2,5.32,5.32,0,0,1,2.38,1.64,17.2,17.2,0,0,0,1.53,1.67A14.83,14.83,0,0,0,13.12,32c.12.1.33.3-.71,2a6.63,6.63,0,0,0,2.53,9.38,4.89,4.89,0,0,0,2.34.61,4.64,4.64,0,0,0,4.34-3.08A6.54,6.54,0,0,0,21,35.13a6.86,6.86,0,0,0-5.15-3.27,5.61,5.61,0,0,1-2.37-1,1.54,1.54,0,0,1-.46-.71,1.71,1.71,0,0,1-.16-.83c.07-.3.62-.49.86-.59A6.55,6.55,0,0,1,15,28.44s0,0,0,0a1.74,1.74,0,0,1,.92.41l.35.24c.46.25.93.49,1.4.73a22.13,22.13,0,0,1,3.22,1.9,18.26,18.26,0,0,1,3.18,3.36,12.88,12.88,0,0,1,1.39,2.38l.19.38c.14.29.29.58.44.87a13,13,0,0,1,1.22,2.87c.87,3.43,2.29,7.29,6.24,9.9A25.7,25.7,0,0,1,38,55.56c.58.63,1.19,1.28,1.8,1.88.3.3.58.61.86.91A15.07,15.07,0,0,0,42,59.68a.91.91,0,0,0,.53.25c.25,0,.37-.31.42-.56.63-3.14.56-5.66-1.82-7.78a8.84,8.84,0,0,1-2.57-3.32c-1.58-4.24-4.86-7.11-8-9.88l-1-.9c-1.08-1-2.23-1.88-3.34-2.77-.62-.49-1.24-1-1.84-1.49-.26-.21-1-.7-.85-1.12s1-.35,1.28-.31c.76.11,1.5.29,2.25.4,2.39.37,4.86.75,6.56,3.09a2.49,2.49,0,0,0,.87.64l2.35,1.26c3,1.61,6,3.26,9.1,4.82a9.44,9.44,0,0,1,4.23,3.87,27.32,27.32,0,0,0,2.67,3.74l0,.07c.17.22.56.61.88.53s.29-.86.23-1.18a6.54,6.54,0,0,0-.68-2l-.94-1.76c-1-2-2.14-4-3.37-5.94a10.85,10.85,0,0,0-9-5.29,11,11,0,0,1-2.61-.55l-1.07-.3a1.35,1.35,0,0,1-.4-.19L35.77,33a.22.22,0,0,1,0-.37.94.94,0,0,0,.12-.09,1.85,1.85,0,0,1,.36-.23l1.48-.63c1.47-.63,3-1.28,4.52-1.82a3.64,3.64,0,0,1,2.33,0l2,.82.29.12a5.18,5.18,0,0,1,1.44,1.12L50,33.28c2.18,1.85,4.43,3.76,6.67,5.62a9.11,9.11,0,0,0,2.88,1.48,18.29,18.29,0,0,0,2,.49,13.91,13.91,0,0,1,2.6.71,15.37,15.37,0,0,0,6.2,1.06c.73,0,1.47,0,2.22,0,.31,0,.89-.06.79-.49-.13-.6-.61-.86-1-1.26s-.88-.85-1.3-1.28c-1.27-1.3-2.63-2.76-4.46-3.19a9.79,9.79,0,0,0-1.7-.23A4.86,4.86,0,0,1,64,36c-.28-.06-.57-.1-.85-.17a13.88,13.88,0,0,1-1.67-.49c-.29-.12-.57-.24-.86-.38a.21.21,0,0,1-.11-.24.21.21,0,0,1,.21-.17,6.12,6.12,0,0,0,1.54-.18A4.64,4.64,0,0,0,65.51,28a6.63,6.63,0,0,0-6.2-4.3,6.78,6.78,0,0,0-2.79.61c-.19.08-.67.29-1.11.44a.25.25,0,0,1-.17,0,3.38,3.38,0,0,1-1.45-1.3c-.17-.32,0-.49.28-.64a4.65,4.65,0,0,1,1.09-.55c3.2-.88,6.83-1.88,10.46-2.75.42-.12,1,.12,1.78.7l.31.23c2.78,2.09,5.65,4.24,9.33,4.45,1.15.07,2.25.1,3.29.1a32.68,32.68,0,0,0,13.41-2.54c.18-.08.6-.27.27-.47a2.46,2.46,0,0,0-1-.1l-1.42-.11c-1.3-.1-2.64-.21-4-.21-.65,0-1.24,0-1.81.08-1.06.1-2.3.2-3.55.2a15.11,15.11,0,0,1-5.65-1,13,13,0,0,0-3.19-.63c-.47-.05-.93-.1-1.39-.18L71.28,20a6.92,6.92,0,0,1-1.2-.16,5.33,5.33,0,0,1-1-.44c-.19-.09-.54-.15-.57-.42s.64-.22.83-.22a3.63,3.63,0,0,1,.9.08,11.76,11.76,0,0,0,7.06-.26,37.61,37.61,0,0,1,13.6-2.26l1.38,0h.38C99.39,16.31,103.48,12,106.9,7.39ZM22.29,29.14A6.35,6.35,0,0,1,21.07,29L21,29l-1.23-.71a17.83,17.83,0,0,0-2.85-1.46,19.09,19.09,0,0,0-3.2-.75c-.51-.09-1-.18-1.53-.29-.22-.05-.44-.12-.66-.19l-.29-.09c-.08,0-.19-.18-.16-.27s.2-.14.28-.17a2.34,2.34,0,0,1,.83-.15,21.59,21.59,0,0,0,10.26-2.67,7.39,7.39,0,0,1,1.3-.56,6.2,6.2,0,0,1,.95-.21l.39-.08a.25.25,0,0,1,.2.06.22.22,0,0,1,.06.19l-.09.38a6.1,6.1,0,0,0,0,2.82c.18.67.61,1.37.4,2.09a3,3,0,0,1-.84,1.23A3.58,3.58,0,0,1,22.29,29.14Zm31.58-3.86c.22.16.4.35.36.54a.52.52,0,0,0,0,.11l0,.16a6.2,6.2,0,0,0-.26,1.05,6.73,6.73,0,0,0,.73,3.53,7.9,7.9,0,0,0,.5.85.24.24,0,0,1,0,.23.65.65,0,0,1-.61.33,5.65,5.65,0,0,1-1.6-.43C51,31,49.13,30.16,47.29,29.38L46,28.86a2.74,2.74,0,0,1-.72-.48l0,0a.21.21,0,0,1-.08-.16.23.23,0,0,1,.06-.16.7.7,0,0,1,.19-.15c1.79-1,3.93-2.1,6.1-3.13a1.77,1.77,0,0,1,.82-.1,1.4,1.4,0,0,1,1,.27C53.47,25,53.68,25.13,53.87,25.28Z"/></g></g></svg>