<svg xmlns="http://www.w3.org/2000/svg" viewBox="0 0 132.08 178.37"><defs><style>.cls-1,.cls-2{fill:#fff;}.cls-2{fill-rule:evenodd;}</style></defs><title>organico-argentina</title><g id="Capa_2" data-name="Capa 2"><g id="Capa_1-2" data-name="Capa 1"><path class="cls-1" d="M10.91,19.87c3.67-3.14,8.16-2.24,11.17,1.27s3.11,8-.57,11.14-8.17,2.24-11.08-1.19S7.23,23,10.91,19.87Zm8.73,10.22c2.34-2,1.53-4.75-.17-6.72s-4.35-3.32-6.69-1.32-1.53,4.75.25,6.82S17.29,32.09,19.64,30.09Z"/><path class="cls-1" d="M21.27,12.43l7.46-3.86a4.27,4.27,0,0,1,6,1.7,3.85,3.85,0,0,1-.39,4.6v0c1.7-.38,2.88.85,3.71,2.2.51.84,1.32,2.47,2.28,3l-3.05,1.59a17.18,17.18,0,0,1-2.2-3.07c-1-1.33-1.85-1.67-3.38-.88L28.7,19.28l2.8,5.4-3,1.57Zm6.31,4.68,3.32-1.73c1.37-.7,1.79-1.68,1.07-3.06s-1.75-1.55-3.09-.83l-3.33,1.73Z"/><path class="cls-1" d="M52.33,15a5.28,5.28,0,0,1-3.6,3.14c-4.66,1.22-8.32-1.56-9.46-5.91S40,3.54,44.61,2.32c3.08-.8,6.48.34,7.74,3.67l-3.16.82a3.2,3.2,0,0,0-3.86-1.7c-3,.78-3.43,3.61-2.75,6.25s2.44,4.76,5.42,4a3.37,3.37,0,0,0,2.74-4.19L47.41,12l-.65-2.46L53.1,7.89l2.12,8.16-2.12.54Z"/><path class="cls-1" d="M60.89.13,64.41,0l6.42,15.36-3.56.13L66,12.07l-5.82.21L59.05,15.8l-3.47.14Zm0,9.58,4-.16L62.78,3.92h0Z"/><path class="cls-1" d="M74.21.18l3.36.59,4.56,11.44h0L84,1.94l3.16.55L84.42,17.84l-3.37-.6L76.51,5.81h0L74.63,16.08l-3.17-.56Z"/><path class="cls-1" d="M91.79,4.09,95,5.22,89.92,19.94l-3.23-1.12Z"/><path class="cls-1" d="M106.37,16.35a3.34,3.34,0,0,0-1.71-4c-2.71-1.45-5,.3-6.25,2.72S97,20.2,99.68,21.66c1.85,1,3.58.28,4.76-1.41l2.93,1.55a6.59,6.59,0,0,1-9.05,2.4c-4.25-2.28-5.07-6.8-2.93-10.75S101.76,7.52,106,9.8c3,1.62,4.61,4.74,3.28,8.12Z"/><path class="cls-1" d="M121.58,20.64c3.61,3.19,3.38,7.76.32,11.24s-7.48,4.21-11.11,1-3.37-7.76-.4-11.13S118,17.45,121.58,20.64Zm-8.88,10.1c2.3,2,4.92.83,6.63-1.12s2.65-4.78.34-6.81S114.76,22,113,24,110.39,28.71,112.7,30.74Z"/><path class="cls-1" d="M17.05,140l2.44,2.67-8,15.08L9,155.1l1.85-3.28-4-4.43-3.53,1.45L.9,146.19Zm-7.61,6.29,2.8,3.06,3-5.4,0,0Z"/><path class="cls-1" d="M23.81,147.21,31,152.1a4.34,4.34,0,0,1,1.35,6.27,4,4,0,0,1-4.42,1.85l0,0c1.16,1.33.61,3-.23,4.38-.52.86-1.62,2.4-1.62,3.48l-2.92-2a17.45,17.45,0,0,1,1.73-3.46c.77-1.5.67-2.49-.81-3.5l-2.93-2-3.61,5.13-2.92-2Zm-1.24,7.92,3.21,2.17c1.31.9,2.38.83,3.32-.49s.57-2.3-.73-3.17l-3.2-2.21Z"/><path class="cls-1" d="M42.2,172.85a5.55,5.55,0,0,1-4.94.48c-4.68-1.74-6.11-6.22-4.46-10.52s5.79-6.84,10.48-5.08c3.09,1.16,5.29,4.13,4.35,7.65l-3.18-1.2a3.28,3.28,0,0,0-2.23-3.7c-3-1.11-5.08,1-6.08,3.58s-.81,5.4,2.18,6.52a3.53,3.53,0,0,0,4.84-1.86l-3.35-1.26.94-2.44,6.36,2.37L44,175.46l-2.11-.8Z"/><path class="cls-1" d="M51.49,160.82l12,1.6-.41,2.92-8.45-1.14-.47,3.4,7.78,1-.39,2.7-7.76-1-.53,3.87,8.64,1.15-.4,2.92L49.3,176.62Z"/><path class="cls-1" d="M64.93,162.5l3.5-.32,7.73,10h0l-1-10.65,3.32-.31L80,177.12l-3.54.33-7.71-10h0l1,10.62-3.32.3Z"/><path class="cls-1" d="M84.82,162.39l-4.61,1.49-.93-2.81L91.87,157l.94,2.8-4.61,1.49,4.1,12.35-3.37,1.09Z"/><path class="cls-1" d="M92.83,156.21,96,154.64l7.29,14.22-3.17,1.58Z"/><path class="cls-1" d="M98.24,153.78l2.85-2.06L113,156.37l0,0-6.44-8.61,2.67-2,9.61,12.83L116,160.7l-11.84-4.65,0,0,6.45,8.59-2.7,2Z"/><path class="cls-1" d="M113.45,141.1l2.36-2.76,16.27,5.72-2.37,2.78-3.55-1.36-3.9,4.55,1.94,3.25L121.87,156Zm7.38,6.54,2.68-3.14-5.84-2.24,0,0Z"/><path class="cls-2" d="M67.06,21.77a65.79,65.79,0,1,0,64.51,67A65.81,65.81,0,0,0,67.06,21.77ZM64.67,146.21a58.68,58.68,0,1,1,59.8-57.53A58.68,58.68,0,0,1,64.67,146.21Z"/><polygon class="cls-1" points="65.79 87.55 65.79 87.55 65.79 87.55 65.79 87.54 65.79 87.55"/><rect class="cls-1" x="65.79" y="87.54" height="0.01"/><path class="cls-2" d="M84.57,120.28a3.18,3.18,0,0,0-.62,0l-.4,0c-2.92-.3-7-3-11.09-6.65,1.51-2.38,3.84-8.18,2.13-20.15C71.5,71.9,41.69,62.26,25.83,59c15.39,17.28,1.05,40,26.51,52.91,5.75,2.93,9.86,4.08,12.77,4.38a11.77,11.77,0,0,0,4.18-.23,59.14,59.14,0,0,0,11.9,8.68A2.26,2.26,0,0,0,82,125a5.16,5.16,0,0,0,4.12-2C87,121.77,86.9,120.51,84.57,120.28ZM68.36,110.9h0c-.2-.11-6.49-2.12-13.29-16.07C52,87.21,49.16,79.9,44.44,74.55a40.49,40.49,0,0,0-8.64-8.17,34,34,0,0,1,10.66,6.13c5.86,4.17,11.1,13.16,13.78,19.89,6.51,13.48,8.18,18.3,8.12,18.5Z"/><path class="cls-1" d="M73.57,75.62c3-5,6.94-10,11.07-12.75a33.85,33.85,0,0,1,10.88-5.73A40.53,40.53,0,0,0,86.58,65c-4,4.23-6.82,9.81-9.56,15.81a24.79,24.79,0,0,1,2.65,8.11,48.4,48.4,0,0,1,.42,11.63c22.07-12.3,10.26-34.36,25.68-50.39C94.28,52.05,75.51,57,64.4,67.5A42.19,42.19,0,0,1,73.57,75.62Z"/></g></g></svg>