<svg xmlns="http://www.w3.org/2000/svg" viewBox="0 0 139.84 160.12"><defs><style>.cls-1{fill:#fff;fill-rule:evenodd;}</style></defs><title>t.a.c.c</title><g id="Capa_2" data-name="Capa 2"><g id="Capa_1-2" data-name="Capa 1"><path class="cls-1" d="M104.45,29.12c1.21-3.75,2-7.2,1.21-11.53A34.83,34.83,0,0,0,96,20c3.54-6.29,1.35-16.35-3-20-6.79,2.07-9.75,10.64-7.89,19.4A18.29,18.29,0,0,0,76,15.16c-.65,1.8-.84,4-1.83,5.46-7.39-1.73-15.67.89-22.43,1.82C49,20.05,47.07,17,42.59,16.39c-1.12,2.9-2.32,5.75-1.81,10.3-8.19,3.93-15.54,8.73-21.23,15.15-.81-.86-3.44-.86-4.24,0V46.7C6.86,58.13,1.18,69.47.15,86.11c-2.63,42.36,30.52,74.16,70.34,74,37.71-.15,66.73-29,69.15-64.9C141.93,61,124.55,43.27,104.45,29.12ZM111.12,60c-4.31.13-6.59,2.3-10.91,2.42a16.43,16.43,0,0,0,3-11.52C106.57,53.27,109.65,55.85,111.12,60Zm-3.63,28.63-.22.06-3.49,1-.25-3.83.25-.06,3.47-1Zm-6.67-37.12c.58,10.08-5,14-14,14.55C88.34,58.07,92.16,52.39,100.82,51.55Zm-12.13.61c0-10.11,5.07-15.14,13.94-16.39C102.25,45.51,97.14,50.49,88.69,52.16Zm-1.12,29a8.72,8.72,0,0,1,6.31-7,6.71,6.71,0,0,1,4.83.26,6.28,6.28,0,0,1,3.1,3.44l.11.29L98.3,79.57l-.13-.25a3.25,3.25,0,0,0-1.43-1.61,2.76,2.76,0,0,0-2-.06,4.21,4.21,0,0,0-2.19,1.45,5.46,5.46,0,0,0-1.11,3,9.1,9.1,0,0,0,.26,3.62,4.19,4.19,0,0,0,1.63,2.55,2.72,2.72,0,0,0,2.34.37,3.5,3.5,0,0,0,2-1.37,5,5,0,0,0,.87-2.75v-.25l.25,0,3.83-.46,0,.37a9.2,9.2,0,0,1-1.85,5.12A8.08,8.08,0,0,1,96.42,92a8.63,8.63,0,0,1-2.23.32,5.86,5.86,0,0,1-3.11-.85,7.87,7.87,0,0,1-3.22-4.88A12.29,12.29,0,0,1,87.57,81.16Zm16.29-60.54c-.34,9.57-5.69,14.14-13.35,16.38C88.17,27.59,96.52,20.37,103.86,20.62ZM91.74,2.43C97.32,6.7,96,20.37,90.51,23.65,84.35,19.64,86.72,5.73,91.74,2.43ZM77.17,18.19c8.1,1.24,12.87,8.93,10.91,18.2C80.72,34,76.36,28.7,77.17,18.19ZM76,33.36c7.94,2,12.06,7.74,11.51,18.19C79.23,49.9,75.14,44.09,76,33.36Zm-.61,29.72a16.68,16.68,0,0,0,5.46,4.85c-1.26,1.58-4.82.84-6.08,2.42C73.46,68.84,76.14,66.13,75.35,63.08Zm-.62-14c7.61,1.29,13.58,10,10.32,18.21C77.89,65.14,73,58.28,74.73,49.12ZM73.52,38.21c.26,3.38,1.6,5.68,2.44,8.49-1.27.25-1.61-.41-2.44-.6-2.16,2.27.4,9.29-4.24,9.09C70.92,50,69.7,42.73,66.85,40c-.49.53-1.65.36-1.81,1.21C62.86,37.65,69.9,38,73.52,38.21ZM59.38,102l-3.91,1.08,0-.36-.88-13.8-4.7,1.3-.25-3.45.25-.07,13-3.61.23,3.45-4.67,1.29Zm-22.56.86.34,5.31-.25,0-3.49,1,0-.37-.81-12.55,3.58-1,.08,1.13A7.1,7.1,0,0,1,37.53,95a5.76,5.76,0,0,1,2-1,3.55,3.55,0,0,1,2.73.23,3.45,3.45,0,0,1,1.59,2.13,16.43,16.43,0,0,1,.28,2.5l.48,7.2-3.75,1,0-.37-.44-7c0-.39-.11-1.56-.18-1.78a1,1,0,0,0-.46-.67,1.12,1.12,0,0,0-.87-.06,2.57,2.57,0,0,0-1.22.92,3.8,3.8,0,0,0-.84,1.76A14.43,14.43,0,0,0,36.82,102.84ZM33.5,81.27a89.49,89.49,0,0,1-15.16,4.25c.45-4.4,1.73-8,2.43-12.13C24,77,27.46,80.44,33.5,81.27ZM23.18,72.18c4.75-4.43,14.8.17,15.17,6.06C31.43,79.94,25.59,76.86,23.18,72.18Zm20.63,6.06a21.86,21.86,0,0,1,3-7.28c2.82.41,3.15,3.31,3.64,6.06C47.86,77,46.63,78.43,43.81,78.24ZM43.2,51.55c9.92-.61,14.35,4.27,16.38,11.53C49.8,63.55,44.77,59.29,43.2,51.55Zm20,21.84c-7.48,4.37-15.15-1.26-14.55-7.88A13.35,13.35,0,0,1,63.21,73.39Zm-.32,23.73,3.49-1L66.6,100l-3.7,1-.25-3.82Zm1.55-24.35a16.12,16.12,0,0,1,6-15.76C74.12,59.25,73,67,71.71,71,68.86,71.15,67,72.26,64.44,72.77Zm1.2-29.7c5.07,5.83,1.06,16.7-4.25,19.39C56.38,56.45,60.3,45.82,65.64,43.07ZM61.39,29.71c2.81,7.15.73,17.48-6.06,18.81C52.27,41.31,55,31.32,61.39,29.71ZM43.81,19.4C50.19,21.26,54.24,30,51.09,37.6,44.56,35.72,40.83,27.09,43.81,19.4ZM54.12,49.75c-9.84.32-14.44-4.59-16.38-12.15Q52,37.59,54.12,49.75ZM42.59,48.52c-4.4,4.55,1.38,12.1,5.47,13.94-.15.88-1.81.21-1.83,1.22-2.6-1.73-2.87-8-7.27-6.07.17-3.19-.25-5.81-1.82-7.27C38.94,48.56,40.15,46.63,42.59,48.52ZM40.18,60c5.64,2.41,4,14.13,0,17C35.7,74,36.51,63.28,40.18,60ZM33.5,49.12c4.68,3.23,4.9,15.1-1.21,17C28.55,61.55,29.87,52.79,33.5,49.12ZM17.74,43.67c6.07,1.8,9.85,5.9,9.09,14.55C21.09,56.44,16,50.89,17.74,43.67Zm14,23.66a13.06,13.06,0,0,1-15.78-6.07C21.91,57.85,30.67,61.75,31.69,67.33ZM25,110.1A7.32,7.32,0,0,1,20.55,113a10.52,10.52,0,0,1-2.75.42,7.16,7.16,0,0,1-1.16-.1,4.71,4.71,0,0,1-2.86-1.45,6.13,6.13,0,0,1-1.43-2.83l-.07-.27,3.65-1.22.1.3a3.4,3.4,0,0,0,.95,1.74,3.45,3.45,0,0,0,2.67.06,3.68,3.68,0,0,0,2-1.12A1.59,1.59,0,0,0,22,107.2a1.23,1.23,0,0,0-.76-.83,11.58,11.58,0,0,0-2.53-.53,22.71,22.71,0,0,1-3.16-.6,4.47,4.47,0,0,1-1.86-1.11,4.35,4.35,0,0,1-1.14-2,4.86,4.86,0,0,1,.58-4,6.59,6.59,0,0,1,4.06-2.64,7,7,0,0,1,5,.14A5.33,5.33,0,0,1,25,98.81l.11.3-3.71,1.19-.1-.26a2.24,2.24,0,0,0-1.18-1.37,2.74,2.74,0,0,0-2.05,0,2.91,2.91,0,0,0-1.66.91,1.26,1.26,0,0,0-.21,1.11,1.16,1.16,0,0,0,.69.81,13,13,0,0,0,2.66.59,13.68,13.68,0,0,1,4.15,1,4.15,4.15,0,0,1,2.05,2.69A5.22,5.22,0,0,1,25,110.1Zm1.56-17,3.74-1,.24,3.64-3.75,1Zm1.12,17.25-.81-12.55,3.74-1.06,0,.38.8,12.57-3.74,1Zm31.9,30.32c1.09-3.76,3.54-6.17,4.86-9.69a50.07,50.07,0,0,1,8.49,10.92C67.81,142.17,63.85,141.29,59.58,140.7Zm0-15.17c-2.91,3.17-2.6,9.53-4.25,14-11.67-3.7-21-9.71-26.68-19.41,11-2.33,20.84-5.86,31.53-8.48,6.37,8.79,11.7,18.64,17,28.5C71.41,137.57,69.69,125.75,59.58,125.53Zm4.25-15.15c2.44-.58,4.82-1.23,7.28-1.82,4.7,7.83,5.81,19.25,8.48,29.11C74.73,128.18,69.15,119.42,63.83,110.38Zm11.52-3c1.38-1,4.28-.57,5.46-1.82,2.53,7.77.69,19.93,1.81,29.12C80.07,125.67,77.8,116.42,75.35,107.35Zm3.89-10.86-1.52-3.4-6,1.64-.94,4.09-.18.05L66.74,100l.14-.51,4.67-18.77.18,0,3.92-1.08.12.22L83,95.45Zm3.86-5,.23-.06,3.47-1,.25,3.83-.24.07-3.48,1Zm7.41,46.16c-.84-7.51,2.93-15.68,3-24.26,4.25,3.63,4.95,10.82,9.09,14.57,1.9-6.06-2.69-15.82-3.63-23.06-1.88-1.13-4.54,1.28-7.26,1.23-1.56,10.17-3.64,19.82-4.88,30.31-2.12-9.17-1.59-21-1.81-32.14,12.59-2.77,23.75-7,36.39-9.71C118.74,116.58,107,129.5,90.51,137.67Zm32.54-59.22a9.17,9.17,0,0,1-1.85,5.12,8.75,8.75,0,0,1-6.55,3.14,6,6,0,0,1-3.13-.87A7.86,7.86,0,0,1,108.3,81a12.22,12.22,0,0,1-.28-5.46,8.86,8.86,0,0,1,2.21-4.5,8.67,8.67,0,0,1,4.1-2.47,6.73,6.73,0,0,1,4.82.25,6.16,6.16,0,0,1,3.09,3.44l.13.29-3.63,1.39-.12-.25a3.23,3.23,0,0,0-1.44-1.6,2.71,2.71,0,0,0-2-.07A4.22,4.22,0,0,0,113,73.44a5.54,5.54,0,0,0-1.12,3,9.47,9.47,0,0,0,.25,3.63,4.26,4.26,0,0,0,1.64,2.54,2.71,2.71,0,0,0,2.36.38,3.63,3.63,0,0,0,2-1.37,4.85,4.85,0,0,0,.85-2.75l0-.25,4.09-.5ZM124.22,84,124,80.2l.23-.06,3.47-1,.25,3.83Z"/><polygon class="cls-1" points="72.37 91.06 76.32 89.95 74.08 84.84 72.37 91.06"/></g></g></svg>