<svg xmlns="http://www.w3.org/2000/svg" viewBox="0 0 114.42 136.37"><defs><style>.cls-1,.cls-2{fill:#fff;}.cls-1{fill-rule:evenodd;}</style></defs><title>u-kosher</title><g id="Capa_2" data-name="Capa 2"><g id="Capa_1-2" data-name="Capa 1"><path class="cls-1" d="M79.05,0V66.64S78.6,80.22,57.43,80.22,35.79,66.64,35.79,66.64V0H.43V62.29c0,35.61,37.69,38.94,37.69,38.94a136.79,136.79,0,0,0,19.31,1.53,137.35,137.35,0,0,0,19.31-1.53s37.68-3.33,37.68-38.94V0Z"/><polygon class="cls-1" points="63.98 15.67 75.42 0 63.92 0 50.16 17.57 50.16 0 40.58 0 40.58 40.55 50.16 40.55 50.16 30.58 56.67 23.57 64.54 40.55 76.01 40.55 63.98 15.67"/><path class="cls-2" d="M0,114.69H4.34v8.7l8.15-8.7h5.7l-8.66,8.68,9.11,12.42H13l-6.5-9.21-2.12,2.15v7.06H0Z"/><path class="cls-2" d="M35.88,133.91q-2.39,2.46-6.91,2.46t-6.92-2.46c-2.14-2-3.2-4.91-3.2-8.7s1.06-6.77,3.2-8.7C23.65,114.87,26,114,29,114s5.32.83,6.91,2.47q3.19,2.89,3.2,8.7T35.88,133.91Zm-2.75-3.2a10.57,10.57,0,0,0,0-11A5,5,0,0,0,29,117.79a5.09,5.09,0,0,0-4.18,1.92,10.48,10.48,0,0,0,0,11A5.13,5.13,0,0,0,29,132.64,5.06,5.06,0,0,0,33.13,130.71Z"/><path class="cls-2" d="M44.15,129.27a4.33,4.33,0,0,0,.81,2.17c.73.87,2,1.3,3.76,1.3a8,8,0,0,0,2.58-.35A2.45,2.45,0,0,0,53.18,130a1.79,1.79,0,0,0-.93-1.62,9.66,9.66,0,0,0-2.92-1l-2.28-.51a14.39,14.39,0,0,1-4.63-1.61,5.14,5.14,0,0,1-2.13-4.57A6.1,6.1,0,0,1,42.37,116c1.39-1.25,3.44-1.88,6.13-1.88a9.3,9.3,0,0,1,5.76,1.78,6.26,6.26,0,0,1,2.5,5.12H52.52a3,3,0,0,0-1.69-2.7,5.92,5.92,0,0,0-2.63-.53,5.11,5.11,0,0,0-2.8.68,2.21,2.21,0,0,0-1,1.92,1.81,1.81,0,0,0,1,1.69,13,13,0,0,0,2.81.88l3.7.87a9.34,9.34,0,0,1,3.65,1.53,5.2,5.2,0,0,1,1.89,4.31,6.08,6.08,0,0,1-2.24,4.81,9.46,9.46,0,0,1-6.31,1.91,10.38,10.38,0,0,1-6.56-1.88A6.26,6.26,0,0,1,40,129.27Z"/><path class="cls-2" d="M59,135.79v-21.1h4.38v8H71.6v-8H76v21.1H71.6v-9.42H63.41v9.42Z"/><path class="cls-2" d="M94.37,118.42H83.2v4.49H93.45v3.66H83.2V132H94.88v3.8h-16v-21.1H94.37Z"/><path class="cls-2" d="M110.37,115.24a5,5,0,0,1,2,1.47,6.13,6.13,0,0,1,1.06,1.77,5.8,5.8,0,0,1,.4,2.23,6.38,6.38,0,0,1-.76,3,4.28,4.28,0,0,1-2.51,2.06,3.89,3.89,0,0,1,2.07,1.67,6.93,6.93,0,0,1,.61,3.29v1.42a11.48,11.48,0,0,0,.11,2,1.81,1.81,0,0,0,.82,1.21v.53h-4.87c-.13-.47-.23-.85-.29-1.13a11,11,0,0,1-.17-1.82l0-2a4.08,4.08,0,0,0-.7-2.69,3.57,3.57,0,0,0-2.52-.67h-4.3v8.27H97v-21.1H107A9.06,9.06,0,0,1,110.37,115.24Zm-9.11,3.12V124H106a5.07,5.07,0,0,0,2.13-.35,2.37,2.37,0,0,0,1.25-2.37,2.68,2.68,0,0,0-1.21-2.58,4.42,4.42,0,0,0-2-.37Z"/></g></g></svg>