<svg xmlns="http://www.w3.org/2000/svg" viewBox="0 0 169.02 169.02"><defs><style>.cls-1{fill:#fff;}</style></defs><title>USDA-organic</title><g id="Capa_2" data-name="Capa 2"><g id="Capa_1-2" data-name="Capa 1"><path class="cls-1" d="M11.11,84v.5a73,73,0,0,0,4,23.8H15l.21.56c.35,1,.78,2.17,1.27,3.31l.15.37h0a73.58,73.58,0,0,0,12.93,20.62l-.07,0,.5.54c.66.72,1.54,1.66,2.45,2.56l.24.23h0A73.66,73.66,0,0,0,55.53,152l0,0,.88.35c1.42.58,2.71,1.07,3.94,1.51l.25.09,0,0a72.85,72.85,0,0,0,23.91,4,73.72,73.72,0,0,0,9-.56l0,0,1.32-.18.49-.07.62-.09c1-.15,2-.34,3.1-.56l.54-.11.37-.07.17,0h0a73.53,73.53,0,0,0,57.82-71.74V84Zm121.33,30.61a1.68,1.68,0,0,1-.34-.2l2.65-3,0,.42Zm1.89-.75a1.32,1.32,0,0,1-.57.7Zm-35,41.53-.71.14c-.86.17-1.73.33-2.6.47l32.81-37.78.53.25L99.53,155.35Zm37.81-46.74,2.23-2.56-2.07,2.56Zm-1.32,0h-1c0,.4,0,.77,0,1.12l-3.24,3.74c-.4-1.2-.46-3.43-.46-7.27,0-.9,0-1.71,0-2.44l3.53-2.5v1.46h5.63v-1.56a11.79,11.79,0,0,0-.49-3.56l14.51-10.31ZM57.65,151.74l50.74-33.89.19.74-48.15,34.2C59.49,152.46,58.57,152.11,57.65,151.74Zm57.29-38.26,2.52-1.68v.48l-2.52,1.79ZM33,135.33c-.57-.57-1.13-1.15-1.67-1.74L69.25,119a8.48,8.48,0,0,0,1.38.11c1.87,0,3.83-.52,4.67-2.44l.19-.07.07,1.17Zm41.12-25.8c0,4.34-.75,5.2-2,5.2-1.78,0-2-1.81-2-8.48,0-1.68,0-3.06.06-4.17l3.68-.72v.32h5.61c0-.49,0-1-.07-1.41l4.88-1-3,14-1.76.68v-8.81H72.05v4.38Zm-20.61-5.19h-1v-1.4l3.48-.6a2.32,2.32,0,0,1-1.19,1.75Zm-8.92,1.74c0-.62,0-1.22,0-1.79l2.14-.36v1.74ZM34.71,108c0-.55,0-1.13,0-1.77V106l3.93-.67v1.94Zm3.91.25c0,5-.37,6.46-2,6.46s-1.86-1.3-1.94-5.7Zm-22.2.83,12.3-2.1c0,.76,0,1.49.08,2.17l-11.49,2.25C17,110.65,16.7,109.88,16.42,109.1ZM34.7,105c0-5.64.3-7.22,2-7.22s1.91,1.46,2,6.55Zm17.79-3V98.5h1.13c1.71,0,2.43.85,2.45,2.81Zm9.34-.58,2.68-.46c-.06.43-.11.87-.15,1.33l-2.73.54A10,10,0,0,0,61.83,101.34Zm8.62-1.47,3.3-.56a8.92,8.92,0,0,1,.13,1l-3.57.7A11.29,11.29,0,0,1,70.45,99.87Zm.27-1.06a1.51,1.51,0,0,1,1.56-1.07,1.26,1.26,0,0,1,1.13.61Zm52.53,7.92V99.16L126.06,98a25.57,25.57,0,0,0-.93,7.47Zm-5.79-6.26-2.52,1v-.11l2.52-1Zm15.62-2.73c.74,0,1.18.4,1.4,1.49l-3.29,2.19C131.36,98.62,131.83,97.74,133.08,97.74Zm3-3.9,16.82-6.94-13.85,9.25A5.48,5.48,0,0,0,136.12,93.84ZM133,93.39c-2.56,0-4.38.67-5.61,2.16l-4.1,1.58V93.85h-5.79v5.51l-2.52,1V93.85H112.3l39.59-7.75Zm-43.8,5.53h.06l1.6,10.53H87.57Zm4.48-1.42,5.59-1.09v10l-3.36,1.29Zm11,5.83h.07l.21.85-.28.11ZM106,95.08l3.5-.68v8L108,103Zm-.24-1-.07-.26L116.62,92Zm-6.54,1.28-5.81,1.14L93.3,96l5.93-1ZM84.59,98.25l-5.24,1c-.06-.31-.12-.61-.19-.9l5.61-.95Zm-5,16.78,1.5-.58-.25,1.15-1.25.52Zm16.54-6.37,3.15-1.21V108l-3,1.25Zm8.56-3.3.53-.2.09.34-.62.26Zm3.55-1.36,1.32-.51v.26l-1.25.52Zm1.32.83v4.28h-.07l-.94-3.86Zm5.43-2.24,2.52-1v9l-2.52,1.68Zm8.31,5.34,1.88-1.25v.15l-1.88,1.34ZM12.11,85H151.52L99.77,93.85h-.54v.09l-6.14,1-.26-1.14H85.55L85,96.37l-6.15,1c-1.1-2.85-3.42-4-6.35-4-4.82,0-7,2.26-7.81,6.46l-2.82.48c0-3.75-1.74-6.47-6.1-6.47H46.7v9.06l-2.19.38c-.43-7.08-2.61-9.91-7.85-9.91-5.85,0-7.91,3.54-7.95,12.6l-12.62,2.16A71.73,71.73,0,0,1,12.11,85Zm5.58,27.35,11.18-2.18c.58,6.35,2.81,8.92,7.79,8.92,5.73,0,7.79-3.38,7.92-12l2.12-.41v11.93h5.79V108.7H54c1.39,0,1.91.75,1.91,3.55v1.65a15,15,0,0,0,.54,4.72h6.19v-.35a1.66,1.66,0,0,1-.66-.78,10.67,10.67,0,0,1-.29-3.41V112c0-3.3-.84-5.27-3.63-5.55v-.07a4,4,0,0,0,3.19-2.5l3-.59c-.06.94-.08,1.94-.08,3,0,6.52.35,10.8,3.47,12.27L30.61,132.79A72.29,72.29,0,0,1,17.69,112.36ZM33.76,136.1,76.1,118.62h3.44V117.2l1-.41-.4,1.83H86.3l.6-4.34h4.61l.58,4.34h6.18l-1.84-8.39,2.8-1.16v9.55h5.41V106.84l.87-.36,2.62,10.35L56.52,151.29A72.53,72.53,0,0,1,33.76,136.1Zm50.75,20.82a72.13,72.13,0,0,1-22.91-3.73l48.66-34.57h4.68V115.3l2.52-1.79v5.11h5.79v-9.23l1.9-1.34c.12,4.92.82,8,2.8,9.62L94.46,156.22A72.49,72.49,0,0,1,84.51,156.92Zm16.6-1.94,29.23-36.18a11.26,11.26,0,0,0,2.74.3c3.7,0,7.34-1.66,7.34-8.6v-1.84h-1.88L156.88,86A72.5,72.5,0,0,1,101.11,155Z"/><path class="cls-1" d="M84.51,0A84.51,84.51,0,1,0,169,84.51,84.51,84.51,0,0,0,84.51,0Zm0,162.43a77.92,77.92,0,1,1,77.94-77.92A77.91,77.91,0,0,1,84.51,162.43Z"/><path class="cls-1" d="M51.33,77.32c6.35,0,9.84-2.74,9.84-11.83V44.17H53.61V67.63c0,3.14-.86,4-2.28,4s-2.3-.82-2.3-4V44.17H41.46V65.49C41.46,74.58,45,77.32,51.33,77.32Z"/><path class="cls-1" d="M72.51,77.32c6.69,0,10.31-3.1,10.31-10,0-11.87-12.39-8.73-12.39-15.14,0-1.44.74-2.87,2.37-2.87,1.47,0,2.16,1.59,2.16,3.51v.76H82c0-6.94-2.8-10-9.39-10-6.41,0-9.55,3.59-9.55,10.14C63.1,65.21,75,62,75,68.43c0,1.79-.89,3.16-2.44,3.16s-2.47-1-2.47-3.8V67H62.74v1.14C62.74,74.9,66.24,77.32,72.51,77.32Z"/><path class="cls-1" d="M106.55,60.44c0-8.52-.45-16.27-9.22-16.27h-11V76.68h11C106.1,76.68,106.55,69,106.55,60.44ZM93.91,70.58V50.27h1.51c2.94,0,3.3,1.38,3.3,10.17s-.36,10.14-3.3,10.14Z"/><path class="cls-1" d="M115.52,71h6l.76,5.69h8.07L123.3,44.17h-9.53l-7.09,32.51h8.07Zm3-20.16h.07l2.08,13.78h-4.23Z"/></g></g></svg>