<?xml version="1.0" encoding="utf-8"?>
<!-- Generator: Adobe Illustrator 16.0.0, SVG Export Plug-In . SVG Version: 6.00 Build 0)  -->
<!DOCTYPE svg PUBLIC "-//W3C//DTD SVG 1.1//EN" "http://www.w3.org/Graphics/SVG/1.1/DTD/svg11.dtd">
<svg version="1.1" id="Capa_1" xmlns="http://www.w3.org/2000/svg" xmlns:xlink="http://www.w3.org/1999/xlink" x="0px" y="0px"
	 width="32px" height="32px" viewBox="0 0 32 32" enable-background="new 0 0 32 32" xml:space="preserve">
<g id="icomoon-ignore">
	<line fill="none" stroke="#449FDB" x1="0" y1="0" x2="0" y2="0"/>
</g>
<path id="path3007" fill="#FEFEFE" d="M15.988,28.737c-2.623,0-5.071-0.79-7.116-2.135L3.899,28.19l1.612-4.804
	c-1.551-2.131-2.464-4.752-2.464-7.582c0-7.132,5.802-12.934,12.935-12.934c7.131,0,12.933,5.802,12.933,12.934
	s-5.802,12.933-12.933,12.933H15.988L15.988,28.737z M15.988,0.423c-8.492,0-15.38,6.89-15.38,15.382
	c0,2.904,0.806,5.627,2.205,7.945L0.037,32l8.516-2.729c2.205,1.217,4.737,1.916,7.435,1.916c8.494,0,15.383-6.889,15.383-15.382
	C31.371,7.312,24.482,0.423,15.988,0.423z"/>
<path id="path3011" fill="#FEFEFE" d="M12.377,9.441c-0.251-0.602-0.44-0.625-0.82-0.641c-0.13-0.005-0.274-0.013-0.435-0.013
	c-0.494,0-1.011,0.144-1.322,0.463c-0.381,0.388-1.324,1.292-1.324,3.148c0,1.855,1.354,3.648,1.537,3.899
	c0.189,0.251,2.637,4.114,6.438,5.689c2.974,1.231,3.854,1.117,4.531,0.975c0.989-0.217,2.229-0.945,2.539-1.826
	c0.312-0.883,0.312-1.637,0.223-1.795c-0.092-0.159-0.344-0.252-0.725-0.442c-0.38-0.189-2.228-1.102-2.576-1.223
	c-0.343-0.131-0.668-0.084-0.927,0.282c-0.366,0.508-0.723,1.026-1.011,1.336c-0.229,0.243-0.603,0.274-0.914,0.146
	c-0.419-0.175-1.589-0.586-3.032-1.872c-1.119-0.995-1.879-2.235-2.1-2.607c-0.22-0.381-0.022-0.602,0.152-0.807
	c0.191-0.235,0.373-0.402,0.563-0.624c0.189-0.221,0.296-0.333,0.417-0.593c0.131-0.251,0.039-0.509-0.052-0.699
	C13.449,12.048,12.689,10.194,12.377,9.441z"/>
</svg>
